<mxfile host="app.diagrams.net" agent="Mozilla/5.0 (Windows NT 10.0; Win64; x64) AppleWebKit/537.36 (KHTML, like Gecko) Chrome/128.0.0.0 YaBrowser/24.10.0.0 Safari/537.36" version="25.0.3">
  <diagram name="Страница — 1" id="v8GtNA45fDHfasAYeIAa">
    <mxGraphModel dx="1578" dy="751" grid="1" gridSize="10" guides="1" tooltips="1" connect="1" arrows="1" fold="1" page="1" pageScale="1" pageWidth="1654" pageHeight="1169" math="0" shadow="0">
      <root>
        <mxCell id="0" />
        <mxCell id="1" parent="0" />
        <mxCell id="sMGljkcK93j-oZQM4Tlk-1" value="" style="endArrow=none;html=1;fontFamily=Times New Roman;" edge="1" parent="1">
          <mxGeometry width="50" height="50" relative="1" as="geometry">
            <mxPoint x="40" y="40" as="sourcePoint" />
            <mxPoint x="40" y="760" as="targetPoint" />
          </mxGeometry>
        </mxCell>
        <mxCell id="sMGljkcK93j-oZQM4Tlk-2" value="" style="endArrow=none;html=1;fontFamily=Times New Roman;" edge="1" parent="1">
          <mxGeometry width="50" height="50" relative="1" as="geometry">
            <mxPoint x="1120" y="40" as="sourcePoint" />
            <mxPoint x="1120" y="760" as="targetPoint" />
          </mxGeometry>
        </mxCell>
        <mxCell id="sMGljkcK93j-oZQM4Tlk-3" value="" style="endArrow=none;html=1;fontFamily=Times New Roman;" edge="1" parent="1">
          <mxGeometry width="50" height="50" relative="1" as="geometry">
            <mxPoint x="40" y="760" as="sourcePoint" />
            <mxPoint x="1120" y="760" as="targetPoint" />
          </mxGeometry>
        </mxCell>
        <mxCell id="sMGljkcK93j-oZQM4Tlk-4" value="" style="endArrow=none;html=1;fontFamily=Times New Roman;" edge="1" parent="1">
          <mxGeometry width="50" height="50" relative="1" as="geometry">
            <mxPoint x="30" y="30" as="sourcePoint" />
            <mxPoint x="30" y="770" as="targetPoint" />
          </mxGeometry>
        </mxCell>
        <mxCell id="sMGljkcK93j-oZQM4Tlk-5" value="" style="endArrow=none;html=1;fontFamily=Times New Roman;" edge="1" parent="1">
          <mxGeometry width="50" height="50" relative="1" as="geometry">
            <mxPoint x="1130" y="30" as="sourcePoint" />
            <mxPoint x="1130" y="770" as="targetPoint" />
          </mxGeometry>
        </mxCell>
        <mxCell id="sMGljkcK93j-oZQM4Tlk-6" value="" style="endArrow=none;html=1;fontFamily=Times New Roman;" edge="1" parent="1">
          <mxGeometry width="50" height="50" relative="1" as="geometry">
            <mxPoint x="30" y="770" as="sourcePoint" />
            <mxPoint x="1130" y="770" as="targetPoint" />
          </mxGeometry>
        </mxCell>
        <mxCell id="sMGljkcK93j-oZQM4Tlk-7" value="" style="endArrow=none;html=1;fontFamily=Times New Roman;" edge="1" parent="1">
          <mxGeometry width="50" height="50" relative="1" as="geometry">
            <mxPoint x="40" y="720" as="sourcePoint" />
            <mxPoint x="1120" y="720" as="targetPoint" />
          </mxGeometry>
        </mxCell>
        <mxCell id="sMGljkcK93j-oZQM4Tlk-8" value="" style="endArrow=none;html=1;fontFamily=Times New Roman;" edge="1" parent="1">
          <mxGeometry width="50" height="50" relative="1" as="geometry">
            <mxPoint x="200" y="720" as="sourcePoint" />
            <mxPoint x="200" y="760" as="targetPoint" />
          </mxGeometry>
        </mxCell>
        <mxCell id="sMGljkcK93j-oZQM4Tlk-9" value="" style="endArrow=none;html=1;fontFamily=Times New Roman;" edge="1" parent="1">
          <mxGeometry width="50" height="50" relative="1" as="geometry">
            <mxPoint x="840" y="720" as="sourcePoint" />
            <mxPoint x="840" y="760" as="targetPoint" />
          </mxGeometry>
        </mxCell>
        <mxCell id="sMGljkcK93j-oZQM4Tlk-10" value="&lt;font style=&quot;font-size: 14px&quot;&gt;Узел:&lt;br&gt;&lt;/font&gt;" style="text;html=1;strokeColor=none;fillColor=none;align=left;verticalAlign=middle;whiteSpace=wrap;rounded=0;fontFamily=Times New Roman;" vertex="1" parent="1">
          <mxGeometry x="40" y="720" width="160" height="20" as="geometry" />
        </mxCell>
        <mxCell id="sMGljkcK93j-oZQM4Tlk-11" value="&lt;font style=&quot;font-size: 14px&quot;&gt;Заголовок:&lt;br&gt;&lt;/font&gt;" style="text;html=1;strokeColor=none;fillColor=none;align=left;verticalAlign=middle;whiteSpace=wrap;rounded=0;fontFamily=Times New Roman;" vertex="1" parent="1">
          <mxGeometry x="200" y="720" width="160" height="20" as="geometry" />
        </mxCell>
        <mxCell id="sMGljkcK93j-oZQM4Tlk-12" value="&lt;font style=&quot;font-size: 14px&quot;&gt;Номер:&lt;br&gt;&lt;/font&gt;" style="text;html=1;strokeColor=none;fillColor=none;align=left;verticalAlign=middle;whiteSpace=wrap;rounded=0;fontFamily=Times New Roman;" vertex="1" parent="1">
          <mxGeometry x="840" y="720" width="160" height="20" as="geometry" />
        </mxCell>
        <mxCell id="sMGljkcK93j-oZQM4Tlk-13" value="&lt;font style=&quot;font-size: 16px&quot;&gt;&lt;b&gt;A3&lt;/b&gt;&lt;/font&gt;" style="text;html=1;align=center;verticalAlign=middle;resizable=0;points=[];autosize=1;fontFamily=Times New Roman;" vertex="1" parent="1">
          <mxGeometry x="100" y="725" width="40" height="30" as="geometry" />
        </mxCell>
        <mxCell id="sMGljkcK93j-oZQM4Tlk-14" value="&lt;font style=&quot;font-size: 16px&quot;&gt;&lt;b&gt;5&lt;/b&gt;&lt;/font&gt;" style="text;html=1;align=center;verticalAlign=middle;resizable=0;points=[];autosize=1;fontFamily=Times New Roman;" vertex="1" parent="1">
          <mxGeometry x="965" y="725" width="30" height="30" as="geometry" />
        </mxCell>
        <mxCell id="sMGljkcK93j-oZQM4Tlk-15" value="&lt;span style=&quot;font-size: 14px;&quot;&gt;&lt;b&gt;Дополнить класс мультимножества функциями выполнения операций над мультимножествами&lt;/b&gt;&lt;/span&gt;" style="text;html=1;align=center;verticalAlign=middle;resizable=0;points=[];autosize=1;fontFamily=Times New Roman;" vertex="1" parent="1">
          <mxGeometry x="205" y="730" width="630" height="30" as="geometry" />
        </mxCell>
        <mxCell id="sMGljkcK93j-oZQM4Tlk-122" style="edgeStyle=orthogonalEdgeStyle;shape=connector;rounded=1;orthogonalLoop=1;jettySize=auto;html=1;exitX=0.5;exitY=0;exitDx=0;exitDy=0;entryX=0.25;entryY=1;entryDx=0;entryDy=0;strokeColor=#9933FF;align=center;verticalAlign=middle;fontFamily=Times New Roman;fontSize=11;fontColor=default;labelBackgroundColor=default;endArrow=classic;" edge="1" parent="1" source="sMGljkcK93j-oZQM4Tlk-21" target="sMGljkcK93j-oZQM4Tlk-41">
          <mxGeometry relative="1" as="geometry">
            <Array as="points">
              <mxPoint x="345" y="650" />
              <mxPoint x="190" y="650" />
              <mxPoint x="190" y="200" />
              <mxPoint x="238" y="200" />
            </Array>
          </mxGeometry>
        </mxCell>
        <mxCell id="sMGljkcK93j-oZQM4Tlk-123" style="edgeStyle=orthogonalEdgeStyle;shape=connector;rounded=1;orthogonalLoop=1;jettySize=auto;html=1;exitX=0.5;exitY=0;exitDx=0;exitDy=0;entryX=0.25;entryY=1;entryDx=0;entryDy=0;strokeColor=#9933FF;align=center;verticalAlign=middle;fontFamily=Times New Roman;fontSize=11;fontColor=default;labelBackgroundColor=default;endArrow=classic;" edge="1" parent="1" source="sMGljkcK93j-oZQM4Tlk-21" target="sMGljkcK93j-oZQM4Tlk-45">
          <mxGeometry relative="1" as="geometry">
            <Array as="points">
              <mxPoint x="345" y="650" />
              <mxPoint x="190" y="650" />
              <mxPoint x="190" y="300" />
              <mxPoint x="423" y="300" />
            </Array>
          </mxGeometry>
        </mxCell>
        <mxCell id="sMGljkcK93j-oZQM4Tlk-124" style="edgeStyle=orthogonalEdgeStyle;shape=connector;rounded=1;orthogonalLoop=1;jettySize=auto;html=1;exitX=0.5;exitY=0;exitDx=0;exitDy=0;entryX=0.25;entryY=1;entryDx=0;entryDy=0;strokeColor=#9933FF;align=center;verticalAlign=middle;fontFamily=Times New Roman;fontSize=11;fontColor=default;labelBackgroundColor=default;endArrow=classic;" edge="1" parent="1" source="sMGljkcK93j-oZQM4Tlk-21" target="sMGljkcK93j-oZQM4Tlk-43">
          <mxGeometry relative="1" as="geometry">
            <Array as="points">
              <mxPoint x="345" y="650" />
              <mxPoint x="190" y="650" />
              <mxPoint x="190" y="410" />
              <mxPoint x="463" y="410" />
            </Array>
          </mxGeometry>
        </mxCell>
        <mxCell id="sMGljkcK93j-oZQM4Tlk-125" style="edgeStyle=orthogonalEdgeStyle;shape=connector;rounded=1;orthogonalLoop=1;jettySize=auto;html=1;exitX=0.5;exitY=0;exitDx=0;exitDy=0;entryX=0.25;entryY=1;entryDx=0;entryDy=0;strokeColor=#9933FF;align=center;verticalAlign=middle;fontFamily=Times New Roman;fontSize=11;fontColor=default;labelBackgroundColor=default;endArrow=classic;" edge="1" parent="1" source="sMGljkcK93j-oZQM4Tlk-21" target="sMGljkcK93j-oZQM4Tlk-50">
          <mxGeometry relative="1" as="geometry">
            <Array as="points">
              <mxPoint x="345" y="650" />
              <mxPoint x="493" y="650" />
            </Array>
          </mxGeometry>
        </mxCell>
        <mxCell id="sMGljkcK93j-oZQM4Tlk-126" style="edgeStyle=orthogonalEdgeStyle;shape=connector;rounded=1;orthogonalLoop=1;jettySize=auto;html=1;exitX=0.5;exitY=0;exitDx=0;exitDy=0;entryX=0.25;entryY=1;entryDx=0;entryDy=0;strokeColor=#9933FF;align=center;verticalAlign=middle;fontFamily=Times New Roman;fontSize=11;fontColor=default;labelBackgroundColor=default;endArrow=classic;" edge="1" parent="1" source="sMGljkcK93j-oZQM4Tlk-21" target="sMGljkcK93j-oZQM4Tlk-48">
          <mxGeometry relative="1" as="geometry">
            <Array as="points">
              <mxPoint x="345" y="650" />
              <mxPoint x="763" y="650" />
            </Array>
          </mxGeometry>
        </mxCell>
        <mxCell id="sMGljkcK93j-oZQM4Tlk-127" style="edgeStyle=orthogonalEdgeStyle;shape=connector;rounded=1;orthogonalLoop=1;jettySize=auto;html=1;exitX=0.5;exitY=0;exitDx=0;exitDy=0;entryX=0.25;entryY=1;entryDx=0;entryDy=0;strokeColor=#9933FF;align=center;verticalAlign=middle;fontFamily=Times New Roman;fontSize=11;fontColor=default;labelBackgroundColor=default;endArrow=classic;" edge="1" parent="1" source="sMGljkcK93j-oZQM4Tlk-21" target="sMGljkcK93j-oZQM4Tlk-78">
          <mxGeometry relative="1" as="geometry">
            <Array as="points">
              <mxPoint x="345" y="650" />
              <mxPoint x="760" y="650" />
              <mxPoint x="760" y="700" />
              <mxPoint x="963" y="700" />
            </Array>
          </mxGeometry>
        </mxCell>
        <mxCell id="sMGljkcK93j-oZQM4Tlk-21" value="&lt;font style=&quot;font-size: 14px;&quot;&gt;Программист&lt;/font&gt;" style="text;html=1;strokeColor=none;fillColor=none;align=center;verticalAlign=middle;whiteSpace=wrap;rounded=0;fontFamily=Times New Roman;" vertex="1" parent="1">
          <mxGeometry x="295" y="680" width="100" height="30" as="geometry" />
        </mxCell>
        <mxCell id="sMGljkcK93j-oZQM4Tlk-128" style="edgeStyle=orthogonalEdgeStyle;shape=connector;rounded=1;orthogonalLoop=1;jettySize=auto;html=1;exitX=0.5;exitY=0;exitDx=0;exitDy=0;entryX=0.75;entryY=1;entryDx=0;entryDy=0;strokeColor=#00FF00;align=center;verticalAlign=middle;fontFamily=Times New Roman;fontSize=11;fontColor=default;labelBackgroundColor=default;endArrow=classic;" edge="1" parent="1" source="sMGljkcK93j-oZQM4Tlk-24" target="sMGljkcK93j-oZQM4Tlk-41">
          <mxGeometry relative="1" as="geometry">
            <Array as="points">
              <mxPoint x="645" y="630" />
              <mxPoint x="380" y="630" />
              <mxPoint x="380" y="310" />
              <mxPoint x="330" y="310" />
              <mxPoint x="330" y="200" />
              <mxPoint x="313" y="200" />
            </Array>
          </mxGeometry>
        </mxCell>
        <mxCell id="sMGljkcK93j-oZQM4Tlk-129" style="edgeStyle=orthogonalEdgeStyle;shape=connector;rounded=1;orthogonalLoop=1;jettySize=auto;html=1;exitX=0.5;exitY=0;exitDx=0;exitDy=0;entryX=0.75;entryY=1;entryDx=0;entryDy=0;strokeColor=#00FF00;align=center;verticalAlign=middle;fontFamily=Times New Roman;fontSize=11;fontColor=default;labelBackgroundColor=default;endArrow=classic;" edge="1" parent="1" source="sMGljkcK93j-oZQM4Tlk-24" target="sMGljkcK93j-oZQM4Tlk-45">
          <mxGeometry relative="1" as="geometry">
            <Array as="points">
              <mxPoint x="645" y="630" />
              <mxPoint x="380" y="630" />
              <mxPoint x="380" y="290" />
              <mxPoint x="508" y="290" />
            </Array>
          </mxGeometry>
        </mxCell>
        <mxCell id="sMGljkcK93j-oZQM4Tlk-130" style="edgeStyle=orthogonalEdgeStyle;shape=connector;rounded=1;orthogonalLoop=1;jettySize=auto;html=1;exitX=0.5;exitY=0;exitDx=0;exitDy=0;entryX=0.75;entryY=1;entryDx=0;entryDy=0;strokeColor=#00FF00;align=center;verticalAlign=middle;fontFamily=Times New Roman;fontSize=11;fontColor=default;labelBackgroundColor=default;endArrow=classic;" edge="1" parent="1" source="sMGljkcK93j-oZQM4Tlk-24" target="sMGljkcK93j-oZQM4Tlk-43">
          <mxGeometry relative="1" as="geometry">
            <Array as="points">
              <mxPoint x="645" y="630" />
              <mxPoint x="380" y="630" />
              <mxPoint x="380" y="400" />
              <mxPoint x="548" y="400" />
            </Array>
          </mxGeometry>
        </mxCell>
        <mxCell id="sMGljkcK93j-oZQM4Tlk-131" style="edgeStyle=orthogonalEdgeStyle;shape=connector;rounded=1;orthogonalLoop=1;jettySize=auto;html=1;exitX=0.5;exitY=0;exitDx=0;exitDy=0;entryX=0.75;entryY=1;entryDx=0;entryDy=0;strokeColor=#00FF00;align=center;verticalAlign=middle;fontFamily=Times New Roman;fontSize=11;fontColor=default;labelBackgroundColor=default;endArrow=classic;" edge="1" parent="1" source="sMGljkcK93j-oZQM4Tlk-24" target="sMGljkcK93j-oZQM4Tlk-50">
          <mxGeometry relative="1" as="geometry">
            <Array as="points">
              <mxPoint x="645" y="630" />
              <mxPoint x="578" y="630" />
            </Array>
          </mxGeometry>
        </mxCell>
        <mxCell id="sMGljkcK93j-oZQM4Tlk-132" style="edgeStyle=orthogonalEdgeStyle;shape=connector;rounded=1;orthogonalLoop=1;jettySize=auto;html=1;exitX=0.5;exitY=0;exitDx=0;exitDy=0;entryX=0.75;entryY=1;entryDx=0;entryDy=0;strokeColor=#00FF00;align=center;verticalAlign=middle;fontFamily=Times New Roman;fontSize=11;fontColor=default;labelBackgroundColor=default;endArrow=classic;" edge="1" parent="1" source="sMGljkcK93j-oZQM4Tlk-24" target="sMGljkcK93j-oZQM4Tlk-48">
          <mxGeometry relative="1" as="geometry" />
        </mxCell>
        <mxCell id="sMGljkcK93j-oZQM4Tlk-133" style="edgeStyle=orthogonalEdgeStyle;shape=connector;rounded=1;orthogonalLoop=1;jettySize=auto;html=1;exitX=0.5;exitY=0;exitDx=0;exitDy=0;entryX=0.75;entryY=1;entryDx=0;entryDy=0;strokeColor=#00FF00;align=center;verticalAlign=middle;fontFamily=Times New Roman;fontSize=11;fontColor=default;labelBackgroundColor=default;endArrow=classic;" edge="1" parent="1" source="sMGljkcK93j-oZQM4Tlk-24" target="sMGljkcK93j-oZQM4Tlk-78">
          <mxGeometry relative="1" as="geometry">
            <Array as="points">
              <mxPoint x="645" y="640" />
              <mxPoint x="820" y="640" />
              <mxPoint x="820" y="710" />
              <mxPoint x="1048" y="710" />
            </Array>
          </mxGeometry>
        </mxCell>
        <mxCell id="sMGljkcK93j-oZQM4Tlk-24" value="&lt;font style=&quot;font-size: 14px;&quot;&gt;Язык программирования С++&lt;/font&gt;" style="text;html=1;strokeColor=none;fillColor=none;align=center;verticalAlign=middle;whiteSpace=wrap;rounded=0;fontFamily=Times New Roman;" vertex="1" parent="1">
          <mxGeometry x="570" y="670" width="150" height="40" as="geometry" />
        </mxCell>
        <mxCell id="sMGljkcK93j-oZQM4Tlk-94" style="edgeStyle=orthogonalEdgeStyle;shape=connector;rounded=1;orthogonalLoop=1;jettySize=auto;html=1;exitX=0.5;exitY=1;exitDx=0;exitDy=0;entryX=0.5;entryY=0;entryDx=0;entryDy=0;strokeColor=#FF0000;align=center;verticalAlign=middle;fontFamily=Times New Roman;fontSize=11;fontColor=default;labelBackgroundColor=default;endArrow=classic;" edge="1" parent="1" source="sMGljkcK93j-oZQM4Tlk-26" target="sMGljkcK93j-oZQM4Tlk-41">
          <mxGeometry relative="1" as="geometry" />
        </mxCell>
        <mxCell id="sMGljkcK93j-oZQM4Tlk-134" style="edgeStyle=orthogonalEdgeStyle;shape=connector;rounded=1;orthogonalLoop=1;jettySize=auto;html=1;exitX=0.5;exitY=1;exitDx=0;exitDy=0;entryX=0.5;entryY=0;entryDx=0;entryDy=0;strokeColor=#FF0000;align=center;verticalAlign=middle;fontFamily=Times New Roman;fontSize=11;fontColor=default;labelBackgroundColor=default;endArrow=classic;" edge="1" parent="1" source="sMGljkcK93j-oZQM4Tlk-26" target="sMGljkcK93j-oZQM4Tlk-45">
          <mxGeometry relative="1" as="geometry">
            <Array as="points">
              <mxPoint x="582" y="110" />
              <mxPoint x="465" y="110" />
            </Array>
          </mxGeometry>
        </mxCell>
        <mxCell id="sMGljkcK93j-oZQM4Tlk-137" style="edgeStyle=orthogonalEdgeStyle;shape=connector;rounded=1;orthogonalLoop=1;jettySize=auto;html=1;exitX=0.5;exitY=1;exitDx=0;exitDy=0;entryX=0.75;entryY=0;entryDx=0;entryDy=0;strokeColor=#FF0000;align=center;verticalAlign=middle;fontFamily=Times New Roman;fontSize=11;fontColor=default;labelBackgroundColor=default;endArrow=classic;" edge="1" parent="1" source="sMGljkcK93j-oZQM4Tlk-26" target="sMGljkcK93j-oZQM4Tlk-48">
          <mxGeometry relative="1" as="geometry">
            <Array as="points">
              <mxPoint x="582" y="110" />
              <mxPoint x="848" y="110" />
            </Array>
          </mxGeometry>
        </mxCell>
        <mxCell id="sMGljkcK93j-oZQM4Tlk-138" style="edgeStyle=orthogonalEdgeStyle;shape=connector;rounded=1;orthogonalLoop=1;jettySize=auto;html=1;exitX=0.5;exitY=1;exitDx=0;exitDy=0;entryX=0.75;entryY=0;entryDx=0;entryDy=0;strokeColor=#FF0000;align=center;verticalAlign=middle;fontFamily=Times New Roman;fontSize=11;fontColor=default;labelBackgroundColor=default;endArrow=classic;" edge="1" parent="1" source="sMGljkcK93j-oZQM4Tlk-26" target="sMGljkcK93j-oZQM4Tlk-78">
          <mxGeometry relative="1" as="geometry">
            <Array as="points">
              <mxPoint x="583" y="110" />
              <mxPoint x="960" y="110" />
              <mxPoint x="960" y="500" />
              <mxPoint x="1048" y="500" />
            </Array>
          </mxGeometry>
        </mxCell>
        <mxCell id="sMGljkcK93j-oZQM4Tlk-26" value="&lt;font style=&quot;font-size: 14px;&quot;&gt;Стандарт языка C++ 17 ISO/IEC&lt;/font&gt;" style="text;html=1;strokeColor=none;fillColor=none;align=center;verticalAlign=middle;whiteSpace=wrap;rounded=0;fontFamily=Times New Roman;" vertex="1" parent="1">
          <mxGeometry x="440" y="50" width="285" height="40" as="geometry" />
        </mxCell>
        <mxCell id="sMGljkcK93j-oZQM4Tlk-27" value="" style="endArrow=none;html=1;rounded=0;fontFamily=Times New Roman;" edge="1" parent="1">
          <mxGeometry width="50" height="50" relative="1" as="geometry">
            <mxPoint x="40" y="40" as="sourcePoint" />
            <mxPoint x="1120" y="40" as="targetPoint" />
          </mxGeometry>
        </mxCell>
        <mxCell id="sMGljkcK93j-oZQM4Tlk-28" value="" style="endArrow=none;html=1;rounded=0;fontFamily=Times New Roman;" edge="1" parent="1">
          <mxGeometry width="50" height="50" relative="1" as="geometry">
            <mxPoint x="30" y="30" as="sourcePoint" />
            <mxPoint x="1130" y="30" as="targetPoint" />
          </mxGeometry>
        </mxCell>
        <mxCell id="sMGljkcK93j-oZQM4Tlk-64" style="edgeStyle=orthogonalEdgeStyle;shape=connector;rounded=1;orthogonalLoop=1;jettySize=auto;html=1;exitX=1;exitY=0.5;exitDx=0;exitDy=0;entryX=0;entryY=0.25;entryDx=0;entryDy=0;strokeColor=default;align=center;verticalAlign=middle;fontFamily=Times New Roman;fontSize=11;fontColor=default;labelBackgroundColor=default;endArrow=classic;strokeWidth=2;" edge="1" parent="1" source="sMGljkcK93j-oZQM4Tlk-34" target="sMGljkcK93j-oZQM4Tlk-41">
          <mxGeometry relative="1" as="geometry" />
        </mxCell>
        <mxCell id="sMGljkcK93j-oZQM4Tlk-65" style="edgeStyle=orthogonalEdgeStyle;shape=connector;rounded=1;orthogonalLoop=1;jettySize=auto;html=1;exitX=1;exitY=0.5;exitDx=0;exitDy=0;entryX=-0.007;entryY=0.318;entryDx=0;entryDy=0;strokeColor=default;align=center;verticalAlign=middle;fontFamily=Times New Roman;fontSize=11;fontColor=default;labelBackgroundColor=default;endArrow=classic;strokeWidth=2;entryPerimeter=0;" edge="1" parent="1" source="sMGljkcK93j-oZQM4Tlk-34" target="sMGljkcK93j-oZQM4Tlk-43">
          <mxGeometry relative="1" as="geometry">
            <Array as="points">
              <mxPoint x="170" y="145" />
              <mxPoint x="170" y="329" />
            </Array>
          </mxGeometry>
        </mxCell>
        <mxCell id="sMGljkcK93j-oZQM4Tlk-72" style="edgeStyle=orthogonalEdgeStyle;shape=connector;rounded=1;orthogonalLoop=1;jettySize=auto;html=1;exitX=1;exitY=0.5;exitDx=0;exitDy=0;entryX=-0.001;entryY=0.287;entryDx=0;entryDy=0;strokeColor=default;align=center;verticalAlign=middle;fontFamily=Times New Roman;fontSize=11;fontColor=default;labelBackgroundColor=default;endArrow=classic;strokeWidth=2;entryPerimeter=0;" edge="1" parent="1" source="sMGljkcK93j-oZQM4Tlk-34" target="sMGljkcK93j-oZQM4Tlk-50">
          <mxGeometry relative="1" as="geometry">
            <Array as="points">
              <mxPoint x="170" y="145" />
              <mxPoint x="170" y="446" />
            </Array>
          </mxGeometry>
        </mxCell>
        <mxCell id="sMGljkcK93j-oZQM4Tlk-74" style="edgeStyle=orthogonalEdgeStyle;shape=connector;rounded=1;orthogonalLoop=1;jettySize=auto;html=1;exitX=1;exitY=0.5;exitDx=0;exitDy=0;entryX=0;entryY=0.25;entryDx=0;entryDy=0;strokeColor=default;align=center;verticalAlign=middle;fontFamily=Times New Roman;fontSize=11;fontColor=default;labelBackgroundColor=default;endArrow=classic;strokeWidth=2;" edge="1" parent="1" source="sMGljkcK93j-oZQM4Tlk-34" target="sMGljkcK93j-oZQM4Tlk-48">
          <mxGeometry relative="1" as="geometry">
            <Array as="points">
              <mxPoint x="170" y="145" />
              <mxPoint x="170" y="540" />
            </Array>
          </mxGeometry>
        </mxCell>
        <mxCell id="sMGljkcK93j-oZQM4Tlk-62" style="edgeStyle=orthogonalEdgeStyle;shape=connector;rounded=1;orthogonalLoop=1;jettySize=auto;html=1;exitX=0.845;exitY=-0.011;exitDx=0;exitDy=0;entryX=0;entryY=0.75;entryDx=0;entryDy=0;strokeColor=default;align=center;verticalAlign=middle;fontFamily=Times New Roman;fontSize=11;fontColor=default;labelBackgroundColor=default;endArrow=classic;exitPerimeter=0;" edge="1" parent="1" source="sMGljkcK93j-oZQM4Tlk-38" target="sMGljkcK93j-oZQM4Tlk-43">
          <mxGeometry relative="1" as="geometry" />
        </mxCell>
        <mxCell id="sMGljkcK93j-oZQM4Tlk-63" style="edgeStyle=orthogonalEdgeStyle;shape=connector;rounded=1;orthogonalLoop=1;jettySize=auto;html=1;exitX=0.842;exitY=0.002;exitDx=0;exitDy=0;entryX=0;entryY=0.75;entryDx=0;entryDy=0;strokeColor=default;align=center;verticalAlign=middle;fontFamily=Times New Roman;fontSize=11;fontColor=default;labelBackgroundColor=default;endArrow=classic;exitPerimeter=0;" edge="1" parent="1" source="sMGljkcK93j-oZQM4Tlk-38" target="sMGljkcK93j-oZQM4Tlk-41">
          <mxGeometry relative="1" as="geometry">
            <Array as="points">
              <mxPoint x="160" y="540" />
              <mxPoint x="140" y="540" />
              <mxPoint x="140" y="158" />
            </Array>
          </mxGeometry>
        </mxCell>
        <mxCell id="sMGljkcK93j-oZQM4Tlk-71" style="edgeStyle=orthogonalEdgeStyle;shape=connector;rounded=1;orthogonalLoop=1;jettySize=auto;html=1;exitX=0.84;exitY=0.001;exitDx=0;exitDy=0;entryX=0;entryY=0.75;entryDx=0;entryDy=0;strokeColor=default;align=center;verticalAlign=middle;fontFamily=Times New Roman;fontSize=11;fontColor=default;labelBackgroundColor=default;endArrow=classic;exitPerimeter=0;" edge="1" parent="1" source="sMGljkcK93j-oZQM4Tlk-38" target="sMGljkcK93j-oZQM4Tlk-50">
          <mxGeometry relative="1" as="geometry" />
        </mxCell>
        <mxCell id="sMGljkcK93j-oZQM4Tlk-73" style="edgeStyle=orthogonalEdgeStyle;shape=connector;rounded=1;orthogonalLoop=1;jettySize=auto;html=1;exitX=0.842;exitY=0.01;exitDx=0;exitDy=0;entryX=0;entryY=0.75;entryDx=0;entryDy=0;strokeColor=default;align=center;verticalAlign=middle;fontFamily=Times New Roman;fontSize=11;fontColor=default;labelBackgroundColor=default;endArrow=classic;exitPerimeter=0;" edge="1" parent="1" source="sMGljkcK93j-oZQM4Tlk-38" target="sMGljkcK93j-oZQM4Tlk-48">
          <mxGeometry relative="1" as="geometry" />
        </mxCell>
        <mxCell id="sMGljkcK93j-oZQM4Tlk-59" style="edgeStyle=orthogonalEdgeStyle;shape=connector;rounded=1;orthogonalLoop=1;jettySize=auto;html=1;exitX=1;exitY=0.5;exitDx=0;exitDy=0;entryX=0;entryY=0.103;entryDx=0;entryDy=0;strokeColor=default;align=center;verticalAlign=middle;fontFamily=Times New Roman;fontSize=11;fontColor=default;labelBackgroundColor=default;endArrow=classic;entryPerimeter=0;" edge="1" parent="1" source="sMGljkcK93j-oZQM4Tlk-41" target="sMGljkcK93j-oZQM4Tlk-45">
          <mxGeometry relative="1" as="geometry">
            <Array as="points">
              <mxPoint x="360" y="135" />
              <mxPoint x="360" y="194" />
            </Array>
          </mxGeometry>
        </mxCell>
        <mxCell id="sMGljkcK93j-oZQM4Tlk-41" value="&lt;font style=&quot;font-size: 14px;&quot; face=&quot;Times New Roman&quot;&gt;Реализовать функцию дополнения мультимножества&lt;/font&gt;" style="rounded=0;whiteSpace=wrap;html=1;" vertex="1" parent="1">
          <mxGeometry x="200" y="90" width="150" height="90" as="geometry" />
        </mxCell>
        <mxCell id="sMGljkcK93j-oZQM4Tlk-42" value="&lt;span style=&quot;font-size: 14px;&quot;&gt;A31&lt;/span&gt;" style="text;html=1;strokeColor=none;fillColor=none;align=center;verticalAlign=middle;whiteSpace=wrap;rounded=0;fontFamily=Times New Roman;" vertex="1" parent="1">
          <mxGeometry x="310" y="160" width="40" height="20" as="geometry" />
        </mxCell>
        <mxCell id="sMGljkcK93j-oZQM4Tlk-43" value="&lt;font style=&quot;font-size: 14px;&quot; face=&quot;Times New Roman&quot;&gt;Реализовать функции пересечения и объединения мультимножеств&lt;/font&gt;" style="rounded=0;whiteSpace=wrap;html=1;" vertex="1" parent="1">
          <mxGeometry x="420" y="300" width="170" height="90" as="geometry" />
        </mxCell>
        <mxCell id="sMGljkcK93j-oZQM4Tlk-44" value="&lt;span style=&quot;font-size: 14px;&quot;&gt;A32&lt;/span&gt;" style="text;html=1;strokeColor=none;fillColor=none;align=center;verticalAlign=middle;whiteSpace=wrap;rounded=0;fontFamily=Times New Roman;" vertex="1" parent="1">
          <mxGeometry x="550" y="370" width="40" height="20" as="geometry" />
        </mxCell>
        <mxCell id="sMGljkcK93j-oZQM4Tlk-45" value="&lt;font style=&quot;font-size: 14px;&quot; face=&quot;Times New Roman&quot;&gt;Реализовать функции разности и симметрической разности мультимножеств&lt;/font&gt;" style="rounded=0;whiteSpace=wrap;html=1;" vertex="1" parent="1">
          <mxGeometry x="380" y="185" width="170" height="90" as="geometry" />
        </mxCell>
        <mxCell id="sMGljkcK93j-oZQM4Tlk-46" value="&lt;span style=&quot;font-size: 14px;&quot;&gt;A33&lt;/span&gt;" style="text;html=1;strokeColor=none;fillColor=none;align=center;verticalAlign=middle;whiteSpace=wrap;rounded=0;fontFamily=Times New Roman;" vertex="1" parent="1">
          <mxGeometry x="510" y="255" width="40" height="20" as="geometry" />
        </mxCell>
        <mxCell id="sMGljkcK93j-oZQM4Tlk-48" value="&lt;font style=&quot;font-size: 14px;&quot; face=&quot;Times New Roman&quot;&gt;Реализовать функции сложения и вычитания мультимножеств&lt;/font&gt;" style="rounded=0;whiteSpace=wrap;html=1;" vertex="1" parent="1">
          <mxGeometry x="720" y="517.5" width="170" height="90" as="geometry" />
        </mxCell>
        <mxCell id="sMGljkcK93j-oZQM4Tlk-49" value="&lt;span style=&quot;font-size: 14px;&quot;&gt;A34&lt;/span&gt;" style="text;html=1;strokeColor=none;fillColor=none;align=center;verticalAlign=middle;whiteSpace=wrap;rounded=0;fontFamily=Times New Roman;" vertex="1" parent="1">
          <mxGeometry x="850" y="587.5" width="40" height="20" as="geometry" />
        </mxCell>
        <mxCell id="sMGljkcK93j-oZQM4Tlk-85" style="edgeStyle=orthogonalEdgeStyle;shape=connector;rounded=1;orthogonalLoop=1;jettySize=auto;html=1;exitX=1;exitY=0.25;exitDx=0;exitDy=0;entryX=0;entryY=0.75;entryDx=0;entryDy=0;strokeColor=default;align=center;verticalAlign=middle;fontFamily=Times New Roman;fontSize=11;fontColor=default;labelBackgroundColor=default;endArrow=classic;" edge="1" parent="1" source="sMGljkcK93j-oZQM4Tlk-50" target="sMGljkcK93j-oZQM4Tlk-78">
          <mxGeometry relative="1" as="geometry">
            <mxPoint x="900" y="187.4999999999999" as="targetPoint" />
            <Array as="points">
              <mxPoint x="700" y="443" />
            </Array>
          </mxGeometry>
        </mxCell>
        <mxCell id="sMGljkcK93j-oZQM4Tlk-50" value="&lt;font style=&quot;font-size: 14px;&quot; face=&quot;Times New Roman&quot;&gt;Реализовать функции умножения и деления мультимножеств&lt;/font&gt;" style="rounded=0;whiteSpace=wrap;html=1;" vertex="1" parent="1">
          <mxGeometry x="450" y="420" width="170" height="90" as="geometry" />
        </mxCell>
        <mxCell id="sMGljkcK93j-oZQM4Tlk-51" value="&lt;span style=&quot;font-size: 14px;&quot;&gt;A35&lt;/span&gt;" style="text;html=1;strokeColor=none;fillColor=none;align=center;verticalAlign=middle;whiteSpace=wrap;rounded=0;fontFamily=Times New Roman;" vertex="1" parent="1">
          <mxGeometry x="580" y="490" width="40" height="20" as="geometry" />
        </mxCell>
        <mxCell id="sMGljkcK93j-oZQM4Tlk-60" style="edgeStyle=orthogonalEdgeStyle;shape=connector;rounded=1;orthogonalLoop=1;jettySize=auto;html=1;exitX=1;exitY=0.5;exitDx=0;exitDy=0;entryX=0;entryY=0.858;entryDx=0;entryDy=0;entryPerimeter=0;strokeColor=default;align=center;verticalAlign=middle;fontFamily=Times New Roman;fontSize=11;fontColor=default;labelBackgroundColor=default;endArrow=classic;" edge="1" parent="1" source="sMGljkcK93j-oZQM4Tlk-43" target="sMGljkcK93j-oZQM4Tlk-45">
          <mxGeometry relative="1" as="geometry">
            <Array as="points">
              <mxPoint x="700" y="350" />
              <mxPoint x="700" y="295" />
              <mxPoint x="310" y="295" />
              <mxPoint x="310" y="262" />
            </Array>
          </mxGeometry>
        </mxCell>
        <mxCell id="sMGljkcK93j-oZQM4Tlk-67" style="edgeStyle=orthogonalEdgeStyle;shape=connector;rounded=1;orthogonalLoop=1;jettySize=auto;html=1;exitX=1;exitY=0.5;exitDx=0;exitDy=0;entryX=0;entryY=0.347;entryDx=0;entryDy=0;entryPerimeter=0;strokeColor=default;align=center;verticalAlign=middle;fontFamily=Times New Roman;fontSize=11;fontColor=default;labelBackgroundColor=default;endArrow=classic;strokeWidth=2;" edge="1" parent="1" source="sMGljkcK93j-oZQM4Tlk-34" target="sMGljkcK93j-oZQM4Tlk-45">
          <mxGeometry relative="1" as="geometry">
            <Array as="points">
              <mxPoint x="170" y="145" />
              <mxPoint x="170" y="216" />
            </Array>
          </mxGeometry>
        </mxCell>
        <mxCell id="sMGljkcK93j-oZQM4Tlk-69" style="edgeStyle=orthogonalEdgeStyle;shape=connector;rounded=1;orthogonalLoop=1;jettySize=auto;html=1;exitX=0.842;exitY=0.01;exitDx=0;exitDy=0;entryX=-0.005;entryY=0.538;entryDx=0;entryDy=0;entryPerimeter=0;strokeColor=default;align=center;verticalAlign=middle;fontFamily=Times New Roman;fontSize=11;fontColor=default;labelBackgroundColor=default;endArrow=classic;exitPerimeter=0;" edge="1" parent="1" source="sMGljkcK93j-oZQM4Tlk-38" target="sMGljkcK93j-oZQM4Tlk-45">
          <mxGeometry relative="1" as="geometry" />
        </mxCell>
        <mxCell id="sMGljkcK93j-oZQM4Tlk-121" style="edgeStyle=orthogonalEdgeStyle;shape=connector;rounded=1;orthogonalLoop=1;jettySize=auto;html=1;exitX=1;exitY=0.5;exitDx=0;exitDy=0;entryX=0;entryY=0.5;entryDx=0;entryDy=0;strokeColor=default;align=center;verticalAlign=middle;fontFamily=Times New Roman;fontSize=11;fontColor=default;labelBackgroundColor=default;endArrow=classic;" edge="1" parent="1" source="sMGljkcK93j-oZQM4Tlk-78" target="sMGljkcK93j-oZQM4Tlk-40">
          <mxGeometry relative="1" as="geometry">
            <Array as="points">
              <mxPoint x="1110" y="645" />
              <mxPoint x="1110" y="460" />
              <mxPoint x="980" y="460" />
            </Array>
          </mxGeometry>
        </mxCell>
        <mxCell id="sMGljkcK93j-oZQM4Tlk-78" value="&lt;font face=&quot;Times New Roman&quot;&gt;&lt;span style=&quot;font-size: 14px;&quot;&gt;Собрать функции в классе мультимножества&lt;/span&gt;&lt;/font&gt;" style="rounded=0;whiteSpace=wrap;html=1;" vertex="1" parent="1">
          <mxGeometry x="920" y="600" width="170" height="90" as="geometry" />
        </mxCell>
        <mxCell id="sMGljkcK93j-oZQM4Tlk-80" style="edgeStyle=orthogonalEdgeStyle;shape=connector;rounded=1;orthogonalLoop=1;jettySize=auto;html=1;exitX=1;exitY=0.5;exitDx=0;exitDy=0;entryX=-0.002;entryY=0.158;entryDx=0;entryDy=0;entryPerimeter=0;strokeColor=default;align=center;verticalAlign=middle;fontFamily=Times New Roman;fontSize=11;fontColor=default;labelBackgroundColor=default;endArrow=classic;" edge="1" parent="1" source="sMGljkcK93j-oZQM4Tlk-41" target="sMGljkcK93j-oZQM4Tlk-78">
          <mxGeometry relative="1" as="geometry">
            <Array as="points">
              <mxPoint x="650" y="135" />
            </Array>
          </mxGeometry>
        </mxCell>
        <mxCell id="sMGljkcK93j-oZQM4Tlk-83" style="edgeStyle=orthogonalEdgeStyle;shape=connector;rounded=1;orthogonalLoop=1;jettySize=auto;html=1;exitX=1;exitY=0.5;exitDx=0;exitDy=0;entryX=0.003;entryY=0.367;entryDx=0;entryDy=0;entryPerimeter=0;strokeColor=default;align=center;verticalAlign=middle;fontFamily=Times New Roman;fontSize=11;fontColor=default;labelBackgroundColor=default;endArrow=classic;" edge="1" parent="1" source="sMGljkcK93j-oZQM4Tlk-45" target="sMGljkcK93j-oZQM4Tlk-78">
          <mxGeometry relative="1" as="geometry">
            <Array as="points">
              <mxPoint x="670" y="230" />
            </Array>
          </mxGeometry>
        </mxCell>
        <mxCell id="sMGljkcK93j-oZQM4Tlk-84" style="edgeStyle=orthogonalEdgeStyle;shape=connector;rounded=1;orthogonalLoop=1;jettySize=auto;html=1;exitX=1;exitY=0.5;exitDx=0;exitDy=0;entryX=0.003;entryY=0.618;entryDx=0;entryDy=0;entryPerimeter=0;strokeColor=default;align=center;verticalAlign=middle;fontFamily=Times New Roman;fontSize=11;fontColor=default;labelBackgroundColor=default;endArrow=classic;" edge="1" parent="1" source="sMGljkcK93j-oZQM4Tlk-43" target="sMGljkcK93j-oZQM4Tlk-78">
          <mxGeometry relative="1" as="geometry">
            <Array as="points">
              <mxPoint x="690" y="350" />
            </Array>
          </mxGeometry>
        </mxCell>
        <mxCell id="sMGljkcK93j-oZQM4Tlk-87" style="edgeStyle=orthogonalEdgeStyle;shape=connector;rounded=1;orthogonalLoop=1;jettySize=auto;html=1;exitX=1;exitY=0.25;exitDx=0;exitDy=0;entryX=-0.005;entryY=0.865;entryDx=0;entryDy=0;entryPerimeter=0;strokeColor=default;align=center;verticalAlign=middle;fontFamily=Times New Roman;fontSize=11;fontColor=default;labelBackgroundColor=default;endArrow=classic;" edge="1" parent="1" source="sMGljkcK93j-oZQM4Tlk-48" target="sMGljkcK93j-oZQM4Tlk-78">
          <mxGeometry relative="1" as="geometry">
            <Array as="points">
              <mxPoint x="900" y="540" />
            </Array>
          </mxGeometry>
        </mxCell>
        <mxCell id="sMGljkcK93j-oZQM4Tlk-34" value="&lt;font style=&quot;font-size: 14px;&quot;&gt;ТЗ для написания функций выполнения операций&lt;/font&gt;" style="text;html=1;align=center;verticalAlign=middle;whiteSpace=wrap;rounded=0;fontFamily=Times New Roman;fontSize=11;fontColor=default;labelBackgroundColor=none;" vertex="1" parent="1">
          <mxGeometry x="40" y="120" width="110" height="50" as="geometry" />
        </mxCell>
        <mxCell id="sMGljkcK93j-oZQM4Tlk-38" value="&lt;font style=&quot;font-size: 14px;&quot;&gt;Класс, описывающий структуру мультимножества&lt;/font&gt;" style="text;html=1;align=center;verticalAlign=middle;whiteSpace=wrap;rounded=0;fontFamily=Times New Roman;fontSize=11;fontColor=default;labelBackgroundColor=none;" vertex="1" parent="1">
          <mxGeometry x="50" y="585" width="130" height="50" as="geometry" />
        </mxCell>
        <mxCell id="sMGljkcK93j-oZQM4Tlk-40" value="&lt;span style=&quot;font-size: 14px;&quot;&gt;Дополненный функциями операций класс мультимножества&lt;/span&gt;" style="text;html=1;align=center;verticalAlign=middle;whiteSpace=wrap;rounded=0;fontFamily=Times New Roman;fontSize=11;fontColor=default;labelBackgroundColor=none;" vertex="1" parent="1">
          <mxGeometry x="1000" y="360" width="110" height="70" as="geometry" />
        </mxCell>
        <mxCell id="sMGljkcK93j-oZQM4Tlk-101" value="" style="endArrow=none;html=1;rounded=1;strokeColor=default;align=center;verticalAlign=middle;fontFamily=Times New Roman;fontSize=11;fontColor=default;labelBackgroundColor=default;edgeStyle=isometricEdgeStyle;strokeWidth=0.5;entryX=0.818;entryY=0.6;entryDx=0;entryDy=0;entryPerimeter=0;" edge="1" parent="1" target="sMGljkcK93j-oZQM4Tlk-102">
          <mxGeometry width="50" height="50" relative="1" as="geometry">
            <mxPoint x="177.11" y="112" as="sourcePoint" />
            <mxPoint x="195" y="82" as="targetPoint" />
            <Array as="points">
              <mxPoint x="187.11" y="102" />
            </Array>
          </mxGeometry>
        </mxCell>
        <mxCell id="sMGljkcK93j-oZQM4Tlk-102" value="&lt;font style=&quot;font-size: 14px;&quot;&gt;ТЗ для реализации функции дополнения&lt;/font&gt;" style="text;html=1;align=center;verticalAlign=middle;whiteSpace=wrap;rounded=0;fontFamily=Times New Roman;fontSize=11;fontColor=default;labelBackgroundColor=none;" vertex="1" parent="1">
          <mxGeometry x="80" y="50" width="110" height="50" as="geometry" />
        </mxCell>
        <mxCell id="sMGljkcK93j-oZQM4Tlk-103" value="" style="endArrow=none;html=1;rounded=1;strokeColor=default;align=center;verticalAlign=middle;fontFamily=Times New Roman;fontSize=11;fontColor=default;labelBackgroundColor=default;edgeStyle=isometricEdgeStyle;strokeWidth=0.5;exitX=0.362;exitY=-0.059;exitDx=0;exitDy=0;exitPerimeter=0;" edge="1" parent="1" source="sMGljkcK93j-oZQM4Tlk-104">
          <mxGeometry width="50" height="50" relative="1" as="geometry">
            <mxPoint x="240" y="257" as="sourcePoint" />
            <mxPoint x="257.89" y="217" as="targetPoint" />
          </mxGeometry>
        </mxCell>
        <mxCell id="sMGljkcK93j-oZQM4Tlk-104" value="&lt;font style=&quot;font-size: 14px;&quot;&gt;ТЗ для реализации функций разностей&lt;/font&gt;" style="text;html=1;align=center;verticalAlign=middle;whiteSpace=wrap;rounded=0;fontFamily=Times New Roman;fontSize=11;fontColor=default;labelBackgroundColor=none;" vertex="1" parent="1">
          <mxGeometry x="200" y="252" width="120" height="30" as="geometry" />
        </mxCell>
        <mxCell id="sMGljkcK93j-oZQM4Tlk-105" value="" style="endArrow=none;html=1;rounded=1;strokeColor=default;align=center;verticalAlign=middle;fontFamily=Times New Roman;fontSize=11;fontColor=default;labelBackgroundColor=default;edgeStyle=isometricEdgeStyle;strokeWidth=0.5;exitX=0.231;exitY=-0.167;exitDx=0;exitDy=0;exitPerimeter=0;" edge="1" parent="1" source="sMGljkcK93j-oZQM4Tlk-106">
          <mxGeometry width="50" height="50" relative="1" as="geometry">
            <mxPoint x="290" y="465" as="sourcePoint" />
            <mxPoint x="300" y="445" as="targetPoint" />
          </mxGeometry>
        </mxCell>
        <mxCell id="sMGljkcK93j-oZQM4Tlk-106" value="&lt;font style=&quot;font-size: 14px;&quot;&gt;ТЗ для реализации функций умножения и деления&lt;/font&gt;" style="text;html=1;align=center;verticalAlign=middle;whiteSpace=wrap;rounded=0;fontFamily=Times New Roman;fontSize=11;fontColor=default;labelBackgroundColor=none;" vertex="1" parent="1">
          <mxGeometry x="240" y="480" width="130" height="30" as="geometry" />
        </mxCell>
        <mxCell id="sMGljkcK93j-oZQM4Tlk-107" value="" style="endArrow=none;html=1;rounded=1;strokeColor=default;align=center;verticalAlign=middle;fontFamily=Times New Roman;fontSize=11;fontColor=default;labelBackgroundColor=default;edgeStyle=isometricEdgeStyle;strokeWidth=0.5;" edge="1" parent="1">
          <mxGeometry width="50" height="50" relative="1" as="geometry">
            <mxPoint x="290" y="570" as="sourcePoint" />
            <mxPoint x="317.89" y="542.5" as="targetPoint" />
          </mxGeometry>
        </mxCell>
        <mxCell id="sMGljkcK93j-oZQM4Tlk-108" value="&lt;font style=&quot;font-size: 14px;&quot;&gt;ТЗ для реализации функций сложения и вычитания&lt;/font&gt;" style="text;html=1;align=center;verticalAlign=middle;whiteSpace=wrap;rounded=0;fontFamily=Times New Roman;fontSize=11;fontColor=default;labelBackgroundColor=none;" vertex="1" parent="1">
          <mxGeometry x="260" y="577.5" width="120" height="30" as="geometry" />
        </mxCell>
        <mxCell id="sMGljkcK93j-oZQM4Tlk-109" value="" style="endArrow=none;html=1;rounded=1;strokeColor=default;align=center;verticalAlign=middle;fontFamily=Times New Roman;fontSize=11;fontColor=default;labelBackgroundColor=default;edgeStyle=isometricEdgeStyle;strokeWidth=0.5;exitX=0.686;exitY=-0.05;exitDx=0;exitDy=0;exitPerimeter=0;" edge="1" parent="1" source="sMGljkcK93j-oZQM4Tlk-110">
          <mxGeometry width="50" height="50" relative="1" as="geometry">
            <mxPoint x="283.54999999999995" y="367.4999999999999" as="sourcePoint" />
            <mxPoint x="310" y="330" as="targetPoint" />
          </mxGeometry>
        </mxCell>
        <mxCell id="sMGljkcK93j-oZQM4Tlk-110" value="&lt;font style=&quot;font-size: 14px;&quot;&gt;ТЗ для реализации функций пересечения и объединения&lt;/font&gt;" style="text;html=1;align=center;verticalAlign=middle;whiteSpace=wrap;rounded=0;fontFamily=Times New Roman;fontSize=11;fontColor=default;labelBackgroundColor=none;" vertex="1" parent="1">
          <mxGeometry x="180" y="350" width="120" height="70" as="geometry" />
        </mxCell>
        <mxCell id="sMGljkcK93j-oZQM4Tlk-111" value="" style="endArrow=none;html=1;rounded=1;strokeColor=default;align=center;verticalAlign=middle;fontFamily=Times New Roman;fontSize=11;fontColor=default;labelBackgroundColor=default;edgeStyle=isometricEdgeStyle;strokeWidth=0.5;exitX=0.115;exitY=-0.027;exitDx=0;exitDy=0;exitPerimeter=0;entryX=0;entryY=0.75;entryDx=0;entryDy=0;" edge="1" parent="1" target="sMGljkcK93j-oZQM4Tlk-112">
          <mxGeometry width="50" height="50" relative="1" as="geometry">
            <mxPoint x="620" y="349.9999999999999" as="sourcePoint" />
            <mxPoint x="691.48" y="267" as="targetPoint" />
          </mxGeometry>
        </mxCell>
        <mxCell id="sMGljkcK93j-oZQM4Tlk-112" value="&lt;font style=&quot;font-size: 14px;&quot;&gt;Реализованные функции пересечения и объединения&lt;/font&gt;" style="text;html=1;align=center;verticalAlign=middle;whiteSpace=wrap;rounded=0;fontFamily=Times New Roman;fontSize=11;fontColor=default;labelBackgroundColor=none;" vertex="1" parent="1">
          <mxGeometry x="700" y="234.5" width="140" height="65" as="geometry" />
        </mxCell>
        <mxCell id="sMGljkcK93j-oZQM4Tlk-113" value="" style="endArrow=none;html=1;rounded=1;strokeColor=default;align=center;verticalAlign=middle;fontFamily=Times New Roman;fontSize=11;fontColor=default;labelBackgroundColor=default;edgeStyle=isometricEdgeStyle;strokeWidth=0.5;exitX=0.115;exitY=-0.027;exitDx=0;exitDy=0;exitPerimeter=0;entryX=0.179;entryY=1.003;entryDx=0;entryDy=0;entryPerimeter=0;" edge="1" parent="1" target="sMGljkcK93j-oZQM4Tlk-114">
          <mxGeometry width="50" height="50" relative="1" as="geometry">
            <mxPoint x="355.28" y="134.9999999999999" as="sourcePoint" />
            <mxPoint x="351.48" y="98.80999999999995" as="targetPoint" />
          </mxGeometry>
        </mxCell>
        <mxCell id="sMGljkcK93j-oZQM4Tlk-114" value="&lt;font style=&quot;font-size: 14px;&quot;&gt;Реализованная функция дополнения&lt;/font&gt;" style="text;html=1;align=center;verticalAlign=middle;whiteSpace=wrap;rounded=0;fontFamily=Times New Roman;fontSize=11;fontColor=default;labelBackgroundColor=none;" vertex="1" parent="1">
          <mxGeometry x="350" y="69.9" width="140" height="35" as="geometry" />
        </mxCell>
        <mxCell id="sMGljkcK93j-oZQM4Tlk-115" value="" style="endArrow=none;html=1;rounded=1;strokeColor=default;align=center;verticalAlign=middle;fontFamily=Times New Roman;fontSize=11;fontColor=default;labelBackgroundColor=default;edgeStyle=isometricEdgeStyle;strokeWidth=0.5;" edge="1" parent="1">
          <mxGeometry width="50" height="50" relative="1" as="geometry">
            <mxPoint x="700" y="490" as="sourcePoint" />
            <mxPoint x="730" y="450" as="targetPoint" />
          </mxGeometry>
        </mxCell>
        <mxCell id="sMGljkcK93j-oZQM4Tlk-116" value="&lt;font style=&quot;font-size: 14px;&quot;&gt;Реализованные функции умножения и деления&lt;/font&gt;" style="text;html=1;align=center;verticalAlign=middle;whiteSpace=wrap;rounded=0;fontFamily=Times New Roman;fontSize=11;fontColor=default;labelBackgroundColor=none;" vertex="1" parent="1">
          <mxGeometry x="700" y="419" width="140" height="35" as="geometry" />
        </mxCell>
        <mxCell id="sMGljkcK93j-oZQM4Tlk-117" value="&lt;font style=&quot;font-size: 14px;&quot;&gt;Реализованные функции сложения и вычитания&lt;/font&gt;" style="text;html=1;align=center;verticalAlign=middle;whiteSpace=wrap;rounded=0;fontFamily=Times New Roman;fontSize=11;fontColor=default;labelBackgroundColor=none;" vertex="1" parent="1">
          <mxGeometry x="900" y="520" width="140" height="35" as="geometry" />
        </mxCell>
        <mxCell id="sMGljkcK93j-oZQM4Tlk-118" value="" style="endArrow=none;html=1;rounded=1;strokeColor=default;align=center;verticalAlign=middle;fontFamily=Times New Roman;fontSize=11;fontColor=default;labelBackgroundColor=default;edgeStyle=isometricEdgeStyle;strokeWidth=0.5;" edge="1" parent="1">
          <mxGeometry width="50" height="50" relative="1" as="geometry">
            <mxPoint x="900" y="587.5" as="sourcePoint" />
            <mxPoint x="940" y="550" as="targetPoint" />
          </mxGeometry>
        </mxCell>
        <mxCell id="sMGljkcK93j-oZQM4Tlk-119" value="&lt;font style=&quot;font-size: 14px;&quot;&gt;Реализованные функции разностей&lt;/font&gt;" style="text;html=1;align=center;verticalAlign=middle;whiteSpace=wrap;rounded=0;fontFamily=Times New Roman;fontSize=11;fontColor=default;labelBackgroundColor=none;" vertex="1" parent="1">
          <mxGeometry x="687.24" y="160" width="140" height="35" as="geometry" />
        </mxCell>
        <mxCell id="sMGljkcK93j-oZQM4Tlk-120" value="" style="endArrow=none;html=1;rounded=1;strokeColor=default;align=center;verticalAlign=middle;fontFamily=Times New Roman;fontSize=11;fontColor=default;labelBackgroundColor=default;edgeStyle=isometricEdgeStyle;strokeWidth=0.5;exitX=0.392;exitY=0.02;exitDx=0;exitDy=0;exitPerimeter=0;" edge="1" parent="1">
          <mxGeometry width="50" height="50" relative="1" as="geometry">
            <mxPoint x="667.9999999999999" y="230.85000000000002" as="sourcePoint" />
            <mxPoint x="707.24" y="198" as="targetPoint" />
          </mxGeometry>
        </mxCell>
        <mxCell id="sMGljkcK93j-oZQM4Tlk-135" style="edgeStyle=orthogonalEdgeStyle;shape=connector;rounded=1;orthogonalLoop=1;jettySize=auto;html=1;exitX=0.5;exitY=1;exitDx=0;exitDy=0;entryX=0.842;entryY=-0.004;entryDx=0;entryDy=0;entryPerimeter=0;strokeColor=#FF0000;align=center;verticalAlign=middle;fontFamily=Times New Roman;fontSize=11;fontColor=default;labelBackgroundColor=default;endArrow=classic;" edge="1" parent="1" source="sMGljkcK93j-oZQM4Tlk-26" target="sMGljkcK93j-oZQM4Tlk-43">
          <mxGeometry relative="1" as="geometry" />
        </mxCell>
        <mxCell id="sMGljkcK93j-oZQM4Tlk-136" style="edgeStyle=orthogonalEdgeStyle;shape=connector;rounded=1;orthogonalLoop=1;jettySize=auto;html=1;exitX=0.5;exitY=1;exitDx=0;exitDy=0;entryX=0.91;entryY=0.021;entryDx=0;entryDy=0;entryPerimeter=0;strokeColor=#FF0000;align=center;verticalAlign=middle;fontFamily=Times New Roman;fontSize=11;fontColor=default;labelBackgroundColor=default;endArrow=classic;" edge="1" parent="1" source="sMGljkcK93j-oZQM4Tlk-26" target="sMGljkcK93j-oZQM4Tlk-50">
          <mxGeometry relative="1" as="geometry" />
        </mxCell>
        <mxCell id="sMGljkcK93j-oZQM4Tlk-139" value="&lt;span style=&quot;font-size: 14px;&quot;&gt;A35&lt;/span&gt;" style="text;html=1;strokeColor=none;fillColor=none;align=center;verticalAlign=middle;whiteSpace=wrap;rounded=0;fontFamily=Times New Roman;" vertex="1" parent="1">
          <mxGeometry x="1050" y="670" width="40" height="20" as="geometry" />
        </mxCell>
      </root>
    </mxGraphModel>
  </diagram>
</mxfile>
